<?xml version="1.0" standalone="no"?><!DOCTYPE svg PUBLIC "-//W3C//DTD SVG 1.1//EN" "http://www.w3.org/Graphics/SVG/1.1/DTD/svg11.dtd"><svg t="1628928563768" class="icon" viewBox="0 0 1024 1024" version="1.1" xmlns="http://www.w3.org/2000/svg" p-id="8907" width="32" height="32" xmlns:xlink="http://www.w3.org/1999/xlink"><defs><style type="text/css"></style></defs><path d="M568.074 954.878l-5.845-23.73c0 0-66.445-217.909-150.15-389.469 59.057-165.185 139.96-384.977 163.93-417.841C615.053 70.292 725.533-16.31 822.863 277.232c121.78 367.142 187.22 677.646 187.22 677.646L568.074 954.878zM747.328 232.189c-39.68-97.332-74.965-124.877-112.8-102.695-37.84 22.227-95.445 248.594-95.445 248.594s34.265-28.56 64.52-30.88c30.25-2.32 71.905 53.932 71.905 53.932s23.87-69.542 52.145-66.885c28.32 2.61 75.64 37.697 75.64 37.697S786.998 329.519 747.328 232.189zM510.814 954.878l-486.659-2.035c0 0 104.097-262.609 135.555-351.674 31.462-89.067 92.015-227.959 174.37-99.555 82.302 128.41 157.402 374.639 157.402 374.639L510.814 954.878zM313.637 582.083c-21.457-51.955-40.405-66.6-60.607-54.615-20.2 11.985-50.452 133.29-50.452 133.29s18.27-15.365 34.455-16.725c16.147-1.3 38.617 28.66 38.617 28.66s12.565-37.26 27.692-35.905c15.175 1.31 40.592 19.91 40.592 19.91S335.094 634.078 313.637 582.083z" p-id="8908" fill="#003680"></path></svg>