<svg t="1630481881641" class="icon" viewBox="0 0 1024 1024" version="1.1" xmlns="http://www.w3.org/2000/svg" p-id="3127" width="32" height="32"><path d="M763.221333 702.848L981.333333 921.002667 921.002667 981.333333l-218.154667-218.112A403.626667 403.626667 0 0 1 448 853.333333a405.333333 405.333333 0 1 1 405.333333-405.333333 403.626667 403.626667 0 0 1-90.112 254.848zM448 768a320 320 0 1 0 0-640 320 320 0 0 0 0 640z" p-id="3128" fill="#bfbfbf"></path><path d="M490.666667 405.333333h128v85.333334h-128v128h-85.333334v-128h-128v-85.333334h128v-128h85.333334z" p-id="3129" fill="#bfbfbf"></path></svg>