<svg t="1628930474690" class="icon" viewBox="0 0 1024 1024" version="1.1" xmlns="http://www.w3.org/2000/svg" p-id="14585" width="32" height="32"><path d="M912.6912 772.4544a20.03456 20.03456 0 0 0 20.03968-20.03456V111.30368a20.03456 20.03456 0 0 0-20.03456-20.03456H471.93088a20.03456 20.03456 0 0 0-20.03456 20.03456v60.1088h140.24192c33.19808 0 60.1088 26.9056 60.1088 60.09856v310.784c71.02976 25.06752 120.20736 92.65152 120.20736 170.05056 0 20.7616-3.52256 41.02144-10.2656 60.1088h150.50752z m0-721.2544c33.19808 0 60.1088 26.91072 60.1088 60.1088v641.11104c0 33.19296-26.91072 60.10368-60.1088 60.10368h-216.45312l17.39264-30.06976a139.48928 139.48928 0 0 0 18.74944-70.10816c0-64.3584-43.7248-120.0128-105.1648-135.82336l-15.04256-3.87072V231.51104a20.03456 20.03456 0 0 0-20.03456-20.03456H411.8272V111.3088C411.8272 78.11072 438.7328 51.2 471.93088 51.2h440.76544z m-225.28 607.9488a20.03456 20.03456 0 0 1-1.9968 28.2624l-110.81216 96.16384a20.03456 20.03456 0 0 1-28.27264-2.00704l-49.46944-57.09312a20.03456 20.03456 0 1 1 30.27968-26.24l36.34176 41.9328 95.6672-83.0208a20.03456 20.03456 0 0 1 28.2624 1.9968zM512 451.8912a20.03456 20.03456 0 0 1 0 40.07424H191.44192a20.03456 20.03456 0 0 1 0-40.06912H512z m0-120.20224a20.03456 20.03456 0 0 1 0 40.06912H191.44192a20.03456 20.03456 0 0 1 0-40.06912H512z m80.13824 560.9728c-99.584 0-180.31104-80.73216-180.31104-180.31616 0-99.584 80.72704-180.31104 180.31104-180.31104s180.31616 80.72704 180.31616 180.31104-80.73216 180.31616-180.31616 180.31616z m0-40.06912c77.45536 0 140.24192-62.79168 140.24192-140.24704 0-77.45024-62.78656-140.2368-140.2368-140.2368-77.46048 0-140.24704 62.78656-140.24704 140.2368 0 77.45536 62.78656 140.24704 140.24192 140.24704z m20.03456-319.45728v-301.6192a20.03456 20.03456 0 0 0-20.03456-20.03968H111.3088a20.03456 20.03456 0 0 0-20.03456 20.03456v681.18528a20.03456 20.03456 0 0 0 20.03456 20.03456h480.83456a20.03456 20.03456 0 0 0 20.03456-20.03456v-21.13536a182.08768 182.08768 0 0 1-20.03456 1.1008c-99.584 0-180.31104-80.73216-180.31104-180.31616 0-99.584 80.72704-180.31104 180.31104-180.31104 6.7328 0 13.4144 0.36864 20.03456 1.1008z m15.04256 43.38688a140.53376 140.53376 0 0 0-35.072-4.41856c-77.46048 0-140.24704 62.79168-140.24704 140.24192 0 77.45536 62.78656 140.24704 140.24192 140.24704 11.97056 0 23.72096-1.49504 35.072-4.41856l25.0368-6.44096v70.9632c0 33.19296-26.91072 60.10368-60.1088 60.10368H111.3088C78.11072 972.8 51.2 945.88928 51.2 912.6912V231.51616c0-33.19296 26.91072-60.10368 60.1088-60.10368h480.82944c33.19808 0 60.1088 26.91072 60.1088 60.1088v351.44704l-25.0368-6.44096z" p-id="14586" fill="#003680"></path></svg>