<svg t="1628156213216" class="icon" viewBox="0 0 1024 1024" version="1.1" xmlns="http://www.w3.org/2000/svg" p-id="16658" width="16" height="16"><path d="M909.757 371.207L728.508 156.228A25.893 25.893 0 0 0 708.663 147h-393.29a25.922 25.922 0 0 0-19.848 9.224l-181.26 214.984c-5.852 6.943-7.602 16.471-4.761 24.983l-1.36 1.212L512.007 877l397.758-472.342 6.073-7.288-1.319-1.176c2.845-8.499 1.097-18.035-4.762-24.987z m-504.634-9.226L512.008 216.75l106.897 145.231H405.123z m55.548-163.067L340.66 361.981H189.952l137.486-163.068h133.233zM189.908 413.895h145.508l104.809 297.26-250.317-297.26z m443.657 0l-121.558 344.74-121.541-344.74h243.099z m49.797-51.914L563.344 198.914h133.251l137.478 163.068H683.362z m150.758 51.914L583.798 711.156l104.809-297.261H834.12z" fill="#ea9518" p-id="16659"></path></svg>