<svg t="1630978091702" class="icon" viewBox="0 0 1024 1024" version="1.1" xmlns="http://www.w3.org/2000/svg" p-id="5027" width="20" height="20"><path d="M512 192c156.448 0 296.021333 98.730667 418.410667 291.605333a52.938667 52.938667 0 0 1 0 56.789334C808.021333 733.269333 668.448 832 512 832c-156.448 0-296.021333-98.730667-418.410667-291.605333a52.938667 52.938667 0 0 1 0-56.789334C215.978667 290.730667 355.552 192 512 192z m0 128c-106.037333 0-192 85.962667-192 192s85.962667 192 192 192 192-85.962667 192-192-85.962667-192-192-192z m0 320c70.688 0 128-57.312 128-128s-57.312-128-128-128-128 57.312-128 128 57.312 128 128 128z" p-id="5028" fill="#acacac"></path></svg>