<svg t="1631157252804" class="icon" viewBox="0 0 1024 1024" version="1.1" xmlns="http://www.w3.org/2000/svg" p-id="2173" width="20" height="20"><path d="M415.930119 223.790358c0-52.980346 43.003528-95.983874 95.983874-95.983874s95.983874 43.003528 95.983874 95.983874-43.003528 95.983874-95.983874 95.983874S415.930119 276.770704 415.930119 223.790358z" p-id="2174" fill="#707070"></path><path d="M415.930119 511.741979c0-52.980346 43.003528-95.983874 95.983874-95.983874s95.983874 43.003528 95.983874 95.983874-43.003528 95.983874-95.983874 95.983874S415.930119 564.722325 415.930119 511.741979z" p-id="2175" fill="#707070"></path><path d="M415.930119 799.865614c0-52.980346 43.003528-95.983874 95.983874-95.983874s95.983874 43.003528 95.983874 95.983874-43.003528 95.983874-95.983874 95.983874S415.930119 852.673946 415.930119 799.865614z" p-id="2176" fill="#707070"></path></svg>