<?xml version="1.0" standalone="no"?><!DOCTYPE svg PUBLIC "-//W3C//DTD SVG 1.1//EN" "http://www.w3.org/Graphics/SVG/1.1/DTD/svg11.dtd"><svg t="1628928438406" class="icon" viewBox="0 0 1024 1024" version="1.1" xmlns="http://www.w3.org/2000/svg" p-id="7764" width="32" height="32" xmlns:xlink="http://www.w3.org/1999/xlink"><defs><style type="text/css"></style></defs><path d="M139.6 372.4v232.7H46.5V372.4h93.1m0-46.6H46.5c-25.6 0-46.5 21-46.5 46.6v232.7c0 25.6 20.9 46.5 46.5 46.5h93.1c25.6 0 46.5-20.9 46.5-46.5V372.4c0.1-25.6-20.9-46.6-46.5-46.6zM977.5 372.4v232.7h-93.1V372.4h93.1m0-46.6h-93.1c-25.6 0-46.5 20.9-46.5 46.5V605c0 25.6 20.9 46.5 46.5 46.5h93.1c25.6 0 46.5-20.9 46.5-46.5V372.4c0-25.6-20.9-46.6-46.5-46.6zM512 791.3c51.3 0 93.1 41.8 93.1 93.1s-41.8 93.1-93.1 93.1-93.1-41.8-93.1-93.1 41.8-93.1 93.1-93.1m0-46.6c-77.1 0-139.6 62.5-139.6 139.6S434.9 1024 512 1024s139.6-62.5 139.6-139.6S589.1 744.7 512 744.7zM418.9 325.8h-93.1v93.1h93.1v-93.1zM698.2 325.8h-93.1v93.1h93.1v-93.1zM672.3 558.5c-32.3 55.4-91.7 93.1-160.3 93.1s-128-37.7-160.3-93.1h-52.8c35.9 82.1 117.7 139.6 213.1 139.6s177.1-57.5 213.1-139.6h-52.8z" p-id="7765" fill="#003680"></path><path d="M117.5 325.8C175.2 163.4 330 46.5 512 46.5s336.8 116.8 394.5 279.3h49.6C896.8 137 720.4 0 512 0S127.2 137 67.9 325.8h49.6zM886.7 651.6c-48.2 96.6-132.4 171.8-235.1 208.3v49.6C780.4 869 884.9 774 938.4 651.6h-51.7z" p-id="7766" fill="#003680"></path></svg>