<svg t="1630985090374" class="icon" viewBox="0 0 1026 1024" version="1.1" xmlns="http://www.w3.org/2000/svg" p-id="1877" width="16" height="16"><path d="M559.826357 38.096844l114.290533 234.930541c6.349474 19.048422 25.397896 31.74737 44.446319 31.74737l247.629488 38.096844c50.795792 6.349474 69.844215 69.844215 31.74737 107.941059L820.154794 634.947406c-12.698948 12.698948-19.048422 31.74737-19.048422 57.145267l44.446318 260.328436c6.349474 50.795792-44.446318 88.892637-82.543163 63.494741l-222.231592-120.640008c-19.048422-6.349474-38.096844-6.349474-57.145266 0L261.401076 1015.91585c-44.446318 25.397896-95.242111-12.698948-82.543162-63.494741l44.446318-260.328436c6.349474-19.048422 0-38.096844-19.048422-57.145267L20.121062 444.463184c-38.096844-31.74737-19.048422-95.242111 31.74737-101.591585l247.629489-38.096844c19.048422 0 38.096844-12.698948 44.446318-31.74737L458.234772 38.096844c19.048422-50.795792 82.543163-50.795792 101.591585 0z m0 0" fill="#bfbfbf" p-id="1878"></path></svg>