<?xml version="1.0" standalone="no"?><!DOCTYPE svg PUBLIC "-//W3C//DTD SVG 1.1//EN" "http://www.w3.org/Graphics/SVG/1.1/DTD/svg11.dtd"><svg t="1628153096575" class="icon" viewBox="0 0 1024 1024" version="1.1" xmlns="http://www.w3.org/2000/svg" p-id="3931" width="14" height="14" xmlns:xlink="http://www.w3.org/1999/xlink"><defs><style type="text/css"></style></defs><path d="M512 42.9l153.4 310.9 343 49.8-248.2 242 58.7 341.7L512 826 205.1 987.3l58.6-341.7-248.2-242 343.1-49.8z" fill="#FFB533" p-id="3932"></path><path d="M205.1 992.3c-1.1 0-2.1-0.3-2.9-1-1.6-1.1-2.3-3-2-4.9l58.1-339.1L12 407.1c-1.4-1.3-1.9-3.3-1.3-5.1 0.6-1.8 2.1-3.1 4.1-3.4l340.5-49.5L507.5 40.7c1.7-3.4 7.1-3.4 8.9 0l152.3 308.6 340.5 49.5c1.9 0.3 3.5 1.6 4.1 3.4 0.6 1.8 0.1 3.8-1.3 5.1L765.6 647.4l58.1 339.1c0.3 1.9-0.4 3.8-2 4.9-1.5 1.1-3.5 1.3-5.3 0.4L512 831.6 207.4 991.8c-0.8 0.3-1.6 0.5-2.3 0.5zM512 821.1c0.8 0 1.6 0.2 2.3 0.6l298 156.7-56.9-331.9c-0.3-1.6 0.2-3.3 1.4-4.4l241.1-235-333.2-48.4c-1.6-0.2-3-1.2-3.8-2.7L512 54 363 355.9c-0.7 1.5-2.1 2.5-3.8 2.7L26.1 407.1l241.1 235c1.2 1.1 1.7 2.8 1.4 4.4l-56.9 331.9 298-156.7c0.7-0.4 1.5-0.6 2.3-0.6z" fill="#E8AA2E" p-id="3933"></path><path d="M512 42.9l153.4 310.9 343 49.8-248.2 242 58.7 341.7L512 826 205.1 987.3l58.6-341.7-248.2-242 343.1-49.8z" fill="#FFB533" p-id="3934"></path><path d="M205.1 992.3c-1.1 0-2.1-0.3-2.9-1-1.6-1.1-2.3-3-2-4.9l58.1-339.1L12 407.1c-1.4-1.3-1.9-3.3-1.3-5.1 0.6-1.8 2.1-3.1 4.1-3.4l340.5-49.5L507.5 40.7c1.7-3.4 7.1-3.4 8.9 0l152.3 308.6 340.5 49.5c1.9 0.3 3.5 1.6 4.1 3.4 0.6 1.8 0.1 3.8-1.3 5.1L765.6 647.4l58.1 339.1c0.3 1.9-0.4 3.8-2 4.9-1.5 1.1-3.5 1.3-5.3 0.4L512 831.6 207.4 991.8c-0.8 0.3-1.6 0.5-2.3 0.5zM512 821.1c0.8 0 1.6 0.2 2.3 0.6l298 156.7-56.9-331.9c-0.3-1.6 0.2-3.3 1.4-4.4l241.1-235-333.2-48.4c-1.6-0.2-3-1.2-3.8-2.7L512 54 363 355.9c-0.7 1.5-2.1 2.5-3.8 2.7L26.1 407.1l241.1 235c1.2 1.1 1.7 2.8 1.4 4.4l-56.9 331.9 298-156.7c0.7-0.4 1.5-0.6 2.3-0.6z" fill="#E8AA2E" p-id="3935"></path><path d="M358.6 358.3l-1 0.1L512 565V54zM662 358.3l-0.3-0.8L512 565l485.7-157.9z" fill="#FFCC5A" p-id="3936"></path><path d="M361.8 358.3l0.4-0.8L512 565 26.1 407.1z" fill="#FFCC5A" p-id="3937"></path><path d="M754.9 643.9l0.6-0.6L512 565l300.2 413.4z" fill="#FFCC5A" p-id="3938"></path><path d="M269 643.9l-0.6-0.6L512.3 565 211.6 978.4z" fill="#FFCC5A" p-id="3939"></path></svg>