<svg t="1629012213435" class="icon" viewBox="0 0 1024 1024" version="1.1" xmlns="http://www.w3.org/2000/svg" p-id="1424" width="200" height="200"><path d="M925.041778 979.456l-77.852445-136.220444c45.425778-32.426667 71.367111-84.309333 64.853334-136.220445l-32.426667-460.515555c0-77.852444-32.426667-136.248889-116.736-136.248889h-149.191111C613.688889 51.911111 568.291556 0 509.895111 0c-58.368 0-103.765333 51.882667-103.765333 103.793778H276.394667c-84.337778 0-129.706667 58.368-136.220445 136.192L107.747556 694.044444c-6.485333 58.396444 19.456 110.279111 64.853333 136.248889L88.291556 966.456889c-6.485333 19.456 0 45.397333 19.456 51.882667 19.456 6.485333 45.397333 0 58.368-19.456l84.337777-149.191112h525.397334l84.337777 149.191112c12.970667 19.456 38.912 25.941333 58.368 19.456 12.970667 6.485333 19.456-19.456 6.485334-38.912zM276.394667 661.617778c-32.426667 0-64.853333-32.426667-64.853334-64.853334s32.426667-64.853333 64.853334-64.853333 64.853333 25.912889 64.853333 64.853333c0 38.912-32.426667 64.853333-64.853333 64.853334z m467.029333 0c-32.426667 0-64.853333-25.941333-64.853333-64.853334 0-32.426667 25.941333-64.853333 64.853333-64.853333 32.426667 0 64.853333 25.912889 64.853333 64.853333 0 38.912-32.426667 64.853333-64.853333 64.853334z m64.853333-233.528889c0 25.969778-19.456 45.425778-45.397333 45.425778H256.938667c-25.941333 0-45.425778-19.456-45.425778-45.397334V259.413333c0-25.941333 19.484444-45.397333 45.425778-45.397333H762.88c25.941333 0 45.397333 19.456 45.397333 45.425778v168.647111zM698.026667 934.087111H321.792c-6.485333 0-19.456 6.485333-19.456 19.456v19.456c0 12.970667 6.485333 19.456 19.456 19.456H698.026667c12.970667 0 19.456-6.485333 19.456-19.456v-19.456c0-6.485333-6.485333-19.456-19.456-19.456z" p-id="1425"></path></svg>